<svg xmlns="http://www.w3.org/2000/svg" width="300" height="300" viewBox="0 0 300 300" fill="">
  <g clip-path="url(#clip0_26_11)">
    <path d="M194.14 71.48C167.12 55.71 131.65 56.14 105.07 71.97C104.935 72.0516 104.819 72.1609 104.731 72.2904C104.643 72.4199 104.585 72.5665 104.56 72.72C98.91 106.56 111.23 139.25 138.6 160.11C142.073 162.757 145.657 165.36 149.35 167.92C149.487 168.015 149.648 168.067 149.815 168.071C149.982 168.074 150.147 168.029 150.29 167.94C173.96 153.13 190.36 133.32 195.03 105.29C196.64 95.64 196.18 84.2 195.62 73.9C195.592 73.4051 195.442 72.925 195.184 72.5027C194.926 72.0803 194.567 71.729 194.14 71.48Z" stroke="#783109" stroke-width="2" fill="#000000"/>
    <path d="M49.18 193.15C48.9667 192.077 48.29 191.717 47.15 192.07C46.9925 192.119 46.8557 192.218 46.7615 192.352C46.6673 192.486 46.621 192.647 46.63 192.81C46.76 195.18 48.5 195.95 50.74 195.97C55.26 196.017 59.7867 196.02 64.32 195.98C66.3 195.96 67.2833 194.96 67.27 192.98L67.23 186.98C67.2233 185.327 66.39 184.483 64.73 184.45L49.32 184.17C49.1759 184.167 49.0386 184.109 48.9376 184.008C48.8366 183.907 48.78 183.772 48.78 183.63V178.16C48.782 177.997 48.8455 177.84 48.9582 177.72C49.0709 177.599 49.2247 177.525 49.39 177.51C54.0967 177.17 58.8167 177.11 63.55 177.33C64.52 177.38 64.91 177.97 65.11 178.82C65.1458 178.988 65.2431 179.137 65.3832 179.238C65.5233 179.34 65.6966 179.387 65.87 179.37L66.66 179.29C66.8308 179.275 66.9892 179.194 67.1027 179.064C67.2161 178.933 67.276 178.764 67.27 178.59C67.22 176.36 65.83 175.29 63.6 175.28C58.8 175.24 54.2033 175.23 49.81 175.25C47.5367 175.263 46.43 176.407 46.49 178.68L46.63 184.31C46.67 185.917 47.4967 186.723 49.11 186.73L63.9 186.77C64.0458 186.77 64.1901 186.799 64.3248 186.855C64.4594 186.91 64.5818 186.992 64.6849 187.095C64.788 187.198 64.8697 187.321 64.9255 187.455C64.9813 187.59 65.01 187.734 65.01 187.88V192.46C65.01 192.797 64.8762 193.12 64.638 193.358C64.3999 193.596 64.0768 193.73 63.74 193.73L49.93 193.76C49.7541 193.759 49.5838 193.698 49.4473 193.587C49.3109 193.476 49.2165 193.322 49.18 193.15Z" stroke="#783109" stroke-width="2" fill="#000000"/>
    <path d="M258.22 178.24C258.302 178.24 258.381 178.273 258.439 178.331C258.497 178.389 258.53 178.468 258.53 178.55L258.49 195.69C258.49 195.772 258.523 195.851 258.581 195.909C258.639 195.967 258.718 196 258.8 196H261.19C261.272 196 261.351 195.967 261.409 195.909C261.467 195.851 261.5 195.772 261.5 195.69V178.68C261.5 178.599 261.531 178.522 261.587 178.464C261.643 178.406 261.72 178.373 261.8 178.37L269.95 178.21C270.03 178.207 270.107 178.174 270.163 178.116C270.219 178.058 270.25 177.981 270.25 177.9L270.26 176.06C270.26 175.978 270.227 175.899 270.169 175.841C270.111 175.783 270.032 175.75 269.95 175.75H249.81C249.728 175.75 249.649 175.783 249.591 175.841C249.533 175.899 249.5 175.978 249.5 176.06V177.96C249.5 178.042 249.533 178.121 249.591 178.179C249.649 178.237 249.728 178.27 249.81 178.27L258.22 178.24Z" stroke="#858585" stroke-width="2" fill="#000000"/>
    <path d="M73.7429 176.038C73.7428 176.001 73.7355 175.965 73.7214 175.931C73.7073 175.897 73.6866 175.866 73.6605 175.84C73.6345 175.814 73.6036 175.793 73.5696 175.779C73.5356 175.765 73.4992 175.758 73.4624 175.758L71.5224 175.762C71.4856 175.762 71.4492 175.769 71.4153 175.783C71.3813 175.797 71.3505 175.818 71.3245 175.844C71.2986 175.87 71.278 175.901 71.264 175.935C71.25 175.969 71.2428 176.005 71.2429 176.042L71.2771 195.682C71.2772 195.719 71.2845 195.755 71.2986 195.789C71.3127 195.823 71.3334 195.854 71.3595 195.88C71.3855 195.906 71.4164 195.927 71.4504 195.941C71.4844 195.955 71.5208 195.962 71.5576 195.962L73.4976 195.958C73.5344 195.958 73.5708 195.951 73.6047 195.937C73.6387 195.923 73.6695 195.902 73.6954 195.876C73.7214 195.85 73.742 195.819 73.756 195.785C73.77 195.751 73.7772 195.715 73.7771 195.678L73.7429 176.038Z" stroke="#858585" stroke-width="2" fill="#000000"/>
    <path d="M80.78 178.43L94.31 178.18C94.4832 178.177 94.6534 178.23 94.7956 178.333C94.9378 178.435 95.0445 178.582 95.1 178.75L95.37 179.54C95.419 179.685 95.5148 179.809 95.6418 179.893C95.7689 179.976 95.9197 180.014 96.07 180L97.14 179.9C97.3211 179.883 97.4891 179.799 97.6112 179.666C97.7333 179.533 97.8006 179.359 97.8 179.18C97.8 174.09 87.54 175.7 81.71 175.78C78.96 175.82 77.16 176.86 77.17 179.75C77.19 183.603 77.2233 187.46 77.27 191.32C77.3 194.08 77.91 196.06 81 196.05C85.8867 196.043 90.6667 196.017 95.34 195.97C96.9467 195.95 97.75 195.137 97.75 193.53V185.75C97.75 185.617 97.6973 185.49 97.6035 185.396C97.5098 185.303 97.3826 185.25 97.25 185.25H90.75C90.6174 185.25 90.4902 185.303 90.3964 185.396C90.3027 185.49 90.25 185.617 90.25 185.75V187.25C90.25 187.383 90.3027 187.51 90.3964 187.604C90.4902 187.697 90.6174 187.75 90.75 187.75L94.63 187.76C94.7944 187.76 94.9521 187.825 95.0684 187.942C95.1847 188.058 95.25 188.216 95.25 188.38V192.92C95.25 193.095 95.1805 193.263 95.0567 193.387C94.9329 193.51 94.765 193.58 94.59 193.58L80.77 193.54C80.6321 193.54 80.4998 193.485 80.4023 193.388C80.3048 193.29 80.25 193.158 80.25 193.02V178.97C80.25 178.829 80.3055 178.693 80.4046 178.592C80.5037 178.491 80.6385 178.433 80.78 178.43Z" stroke="#858585" stroke-width="2" fill="#000000"/>
    <path d="M117.86 192.29L104.26 176.21C104.141 176.066 103.992 175.95 103.825 175.871C103.657 175.791 103.474 175.75 103.29 175.75H100.75C100.617 175.75 100.49 175.803 100.396 175.896C100.303 175.99 100.25 176.117 100.25 176.25V195.37C100.25 195.537 100.316 195.697 100.435 195.815C100.553 195.934 100.713 196 100.88 196H102.65C102.82 196 102.983 195.933 103.103 195.813C103.223 195.693 103.29 195.53 103.29 195.36L103.17 180.07C103.17 179.417 103.38 179.343 103.8 179.85L116.86 195.49C116.977 195.631 117.122 195.746 117.288 195.827C117.453 195.908 117.635 195.954 117.82 195.96L120.22 196.02C120.294 196.021 120.368 196.008 120.437 195.98C120.506 195.953 120.569 195.912 120.622 195.86C120.676 195.807 120.718 195.745 120.746 195.677C120.775 195.608 120.79 195.534 120.79 195.46L120.73 176.24C120.73 176.176 120.717 176.112 120.693 176.052C120.668 175.993 120.632 175.939 120.586 175.894C120.541 175.848 120.487 175.812 120.428 175.787C120.368 175.763 120.304 175.75 120.24 175.75H118.87C118.706 175.75 118.548 175.815 118.432 175.932C118.315 176.048 118.25 176.206 118.25 176.37V192.15C118.25 192.55 118.12 192.597 117.86 192.29Z" stroke="#858585" stroke-width="2" fill="#000000"/>
    <path d="M127 188.75H141C141.133 188.75 141.26 188.803 141.354 188.896C141.447 188.99 141.5 189.117 141.5 189.25V195.38C141.5 195.544 141.566 195.702 141.685 195.818C141.803 195.935 141.963 196 142.13 196H143.96C144.096 196 144.227 195.946 144.324 195.848C144.421 195.751 144.477 195.619 144.48 195.48C144.52 190.58 144.517 185.683 144.47 180.79C144.45 177.84 143.79 175.73 140.5 175.73C136.52 175.737 132.537 175.743 128.55 175.75C125.29 175.76 123.55 176.81 123.73 180.25C123.857 182.73 123.833 187.763 123.66 195.35C123.657 195.505 123.716 195.654 123.822 195.767C123.929 195.879 124.075 195.945 124.23 195.95L125.98 196.01C126.047 196.013 126.115 196.002 126.178 195.979C126.241 195.955 126.298 195.92 126.347 195.874C126.395 195.828 126.434 195.773 126.46 195.712C126.487 195.651 126.5 195.586 126.5 195.52V189.25C126.5 189.117 126.553 188.99 126.646 188.896C126.74 188.803 126.867 188.75 127 188.75Z" stroke="#858585" stroke-width="2" fill="#000000"/>
    <path d="M167.06 192.75C163.933 187.363 160.803 181.97 157.67 176.57C157.063 175.53 156.03 175.293 154.57 175.86C154.514 175.882 154.463 175.916 154.421 175.96C154.38 176.003 154.348 176.055 154.328 176.112C154.308 176.169 154.3 176.229 154.306 176.289C154.311 176.35 154.33 176.408 154.36 176.46L165.34 195.4C165.425 195.546 165.547 195.668 165.692 195.754C165.837 195.84 166.002 195.887 166.17 195.89L168.35 195.95C168.54 195.953 168.728 195.905 168.893 195.812C169.059 195.719 169.195 195.584 169.29 195.42L180.24 176.44C180.273 176.382 180.292 176.318 180.297 176.251C180.301 176.185 180.29 176.119 180.265 176.057C180.24 175.995 180.201 175.94 180.152 175.896C180.103 175.851 180.044 175.819 179.98 175.8C178.29 175.31 177.35 175.74 176.46 177.3C173.487 182.453 170.52 187.603 167.56 192.75C167.534 192.794 167.498 192.83 167.454 192.855C167.41 192.88 167.361 192.893 167.31 192.893C167.259 192.893 167.21 192.88 167.166 192.855C167.122 192.83 167.086 192.794 167.06 192.75Z" stroke="#858585" stroke-width="2" fill="#000000"/>
    <path d="M200.25 189.25V195.25C200.25 195.428 200.322 195.598 200.449 195.724C200.577 195.849 200.75 195.92 200.93 195.92L202.57 195.93C202.75 195.93 202.923 195.858 203.051 195.731C203.178 195.603 203.25 195.43 203.25 195.25C203.27 191.9 204.88 175.81 200 175.77C194.987 175.723 189.98 175.737 184.98 175.81C183.32 175.83 182.49 176.67 182.49 178.33V195.42C182.49 195.494 182.505 195.567 182.534 195.635C182.563 195.703 182.605 195.765 182.658 195.816C182.711 195.868 182.774 195.908 182.843 195.934C182.912 195.96 182.986 195.973 183.06 195.97L184.58 195.92C184.76 195.915 184.93 195.84 185.055 195.711C185.18 195.582 185.25 195.41 185.25 195.23V189.37C185.25 189.206 185.316 189.048 185.435 188.932C185.553 188.815 185.713 188.75 185.88 188.75H199.75C199.883 188.75 200.01 188.803 200.104 188.896C200.197 188.99 200.25 189.117 200.25 189.25Z" stroke="#858585" stroke-width="2" fill="#000000"/>
    <path d="M208.62 192.94L208.46 176.26C208.457 176.124 208.401 175.994 208.304 175.899C208.207 175.803 208.076 175.75 207.94 175.75H206.25C206.117 175.75 205.99 175.803 205.896 175.896C205.803 175.99 205.75 176.117 205.75 176.25L205.74 192.74C205.74 194.907 206.823 195.99 208.99 195.99L223.83 196C225.59 196 226.473 195.12 226.48 193.36L226.51 176.26C226.51 176.125 226.456 175.995 226.361 175.899C226.265 175.804 226.135 175.75 226 175.75H224C223.867 175.75 223.74 175.803 223.646 175.896C223.553 175.99 223.5 176.117 223.5 176.25V193C223.5 193.133 223.447 193.26 223.354 193.354C223.26 193.447 223.133 193.5 223 193.5H209.18C209.031 193.5 208.889 193.441 208.784 193.336C208.679 193.231 208.62 193.089 208.62 192.94Z" stroke="#858585" stroke-width="2" fill="#000000"/>
    <path d="M231.99 193.57C231.87 193.567 231.755 193.518 231.671 193.432C231.587 193.346 231.54 193.23 231.54 193.11L231.48 176.21C231.48 176.088 231.432 175.971 231.345 175.885C231.259 175.798 231.142 175.75 231.02 175.75H229.21C229.15 175.75 229.09 175.762 229.034 175.785C228.978 175.808 228.927 175.842 228.885 175.885C228.842 175.927 228.808 175.978 228.785 176.034C228.762 176.09 228.75 176.15 228.75 176.21V195.5C228.75 195.56 228.762 195.62 228.785 195.676C228.808 195.732 228.842 195.783 228.885 195.825C228.927 195.868 228.978 195.902 229.034 195.925C229.09 195.948 229.15 195.96 229.21 195.96L249.2 196.02C249.263 196.019 249.325 196.005 249.383 195.979C249.44 195.952 249.491 195.915 249.534 195.868C249.576 195.821 249.608 195.766 249.628 195.706C249.648 195.646 249.655 195.583 249.65 195.52L249.54 194.22C249.53 194.107 249.479 194.001 249.396 193.924C249.313 193.846 249.204 193.802 249.09 193.8L231.99 193.57Z" stroke="#858585" stroke-width="2" fill="#000000"/>
    <path d="M155.95 63.49C139.117 62.15 123.433 65.6234 108.9 73.91C108.578 74.093 108.304 74.3497 108.101 74.6592C107.897 74.9686 107.77 75.3219 107.73 75.69C103.51 112.76 117.39 142.44 148.36 162.97C148.417 163.009 148.482 163.034 148.55 163.044C148.618 163.053 148.688 163.047 148.754 163.026C148.82 163.005 148.881 162.969 148.932 162.922C148.984 162.874 149.024 162.815 149.05 162.75C151.297 156.983 153.05 151.057 154.31 144.97C156.53 134.27 150.29 127.79 143.12 119.67C124.43 98.49 137.31 77.74 156.09 64C156.503 63.7 156.457 63.53 155.95 63.49Z" stroke="#783109" stroke-width="2" fill="#000000"/>
    <path d="M191.52 74.09C181.653 68.41 171.053 64.9567 159.72 63.73C159.54 63.709 159.359 63.7415 159.198 63.8235C159.038 63.9054 158.906 64.033 158.82 64.19C154.48 72.0567 151.173 80.2933 148.9 88.9C143.33 110.03 173.52 118.07 165.96 143.35C163.19 152.63 157.64 156.66 151.39 163.05C151.083 163.363 151.113 163.4 151.48 163.16C182.793 142.633 196.357 113.273 192.17 75.08C192.145 74.8753 192.074 74.6793 191.961 74.5075C191.848 74.3356 191.697 74.1927 191.52 74.09Z" stroke="#783109" stroke-width="2" fill="#000000"/>
    <path d="M141.477 178.754C141.477 178.713 141.469 178.673 141.453 178.635C141.438 178.598 141.415 178.564 141.386 178.535C141.357 178.506 141.323 178.484 141.285 178.468C141.247 178.453 141.207 178.445 141.166 178.445L126.807 178.495C126.766 178.495 126.725 178.503 126.688 178.519C126.65 178.535 126.616 178.558 126.588 178.587C126.559 178.616 126.536 178.65 126.521 178.687C126.505 178.725 126.497 178.765 126.497 178.806L126.523 185.966C126.523 186.007 126.531 186.047 126.547 186.085C126.562 186.122 126.585 186.156 126.614 186.185C126.643 186.214 126.677 186.236 126.715 186.252C126.753 186.267 126.793 186.275 126.834 186.275L141.193 186.225C141.234 186.225 141.275 186.217 141.312 186.201C141.35 186.185 141.384 186.162 141.412 186.133C141.441 186.104 141.464 186.07 141.479 186.033C141.495 185.995 141.503 185.955 141.503 185.914L141.477 178.754Z" stroke="#858585" stroke-width="2" fill="#000000"/>
    <path d="M200.262 178.836C200.263 178.796 200.255 178.755 200.239 178.718C200.224 178.68 200.201 178.646 200.172 178.617C200.144 178.588 200.11 178.565 200.072 178.549C200.034 178.533 199.994 178.525 199.954 178.525L185.574 178.475C185.533 178.475 185.493 178.483 185.455 178.498C185.417 178.514 185.383 178.536 185.354 178.565C185.325 178.594 185.302 178.628 185.287 178.665C185.271 178.703 185.263 178.743 185.262 178.784L185.238 185.904C185.237 185.945 185.245 185.985 185.261 186.023C185.276 186.06 185.299 186.094 185.328 186.123C185.356 186.152 185.39 186.175 185.428 186.191C185.466 186.207 185.506 186.215 185.546 186.215L199.926 186.265C199.967 186.265 200.007 186.257 200.045 186.242C200.083 186.226 200.117 186.204 200.146 186.175C200.175 186.146 200.198 186.112 200.213 186.075C200.229 186.037 200.237 185.997 200.238 185.956L200.262 178.836Z" stroke="#858585" stroke-width="2" fill="#000000"/>
    <path d="M0 0H300V300H0V0ZM194.14 71.48C167.12 55.71 131.65 56.14 105.07 71.97C104.935 72.0516 104.819 72.1609 104.731 72.2904C104.643 72.4199 104.585 72.5665 104.56 72.72C98.91 106.56 111.23 139.25 138.6 160.11C142.073 162.757 145.657 165.36 149.35 167.92C149.487 168.015 149.648 168.067 149.815 168.071C149.982 168.074 150.147 168.029 150.29 167.94C173.96 153.13 190.36 133.32 195.03 105.29C196.64 95.64 196.18 84.2 195.62 73.9C195.592 73.4051 195.442 72.925 195.184 72.5027C194.926 72.0803 194.567 71.729 194.14 71.48ZM49.18 193.15C48.9667 192.077 48.29 191.717 47.15 192.07C46.9925 192.119 46.8557 192.218 46.7615 192.352C46.6673 192.486 46.621 192.647 46.63 192.81C46.76 195.18 48.5 195.95 50.74 195.97C55.26 196.017 59.7867 196.02 64.32 195.98C66.3 195.96 67.2833 194.96 67.27 192.98L67.23 186.98C67.2233 185.327 66.39 184.483 64.73 184.45L49.32 184.17C49.1759 184.167 49.0386 184.109 48.9376 184.008C48.8366 183.907 48.78 183.772 48.78 183.63V178.16C48.782 177.997 48.8455 177.84 48.9582 177.72C49.0709 177.599 49.2247 177.525 49.39 177.51C54.0967 177.17 58.8167 177.11 63.55 177.33C64.52 177.38 64.91 177.97 65.11 178.82C65.1458 178.988 65.2431 179.137 65.3832 179.238C65.5233 179.34 65.6966 179.387 65.87 179.37L66.66 179.29C66.8308 179.275 66.9892 179.194 67.1027 179.064C67.2161 178.933 67.276 178.764 67.27 178.59C67.22 176.36 65.83 175.29 63.6 175.28C58.8 175.24 54.2033 175.23 49.81 175.25C47.5367 175.263 46.43 176.407 46.49 178.68L46.63 184.31C46.67 185.917 47.4967 186.723 49.11 186.73L63.9 186.77C64.0458 186.77 64.1901 186.799 64.3248 186.854C64.4594 186.91 64.5818 186.992 64.6849 187.095C64.788 187.198 64.8697 187.321 64.9255 187.455C64.9813 187.59 65.01 187.734 65.01 187.88V192.46C65.01 192.797 64.8762 193.12 64.638 193.358C64.3998 193.596 64.0768 193.73 63.74 193.73L49.93 193.76C49.7541 193.759 49.5838 193.698 49.4473 193.587C49.3109 193.476 49.2165 193.322 49.18 193.15ZM258.22 178.24C258.302 178.24 258.381 178.273 258.439 178.331C258.497 178.389 258.53 178.468 258.53 178.55L258.49 195.69C258.49 195.772 258.523 195.851 258.581 195.909C258.639 195.967 258.718 196 258.8 196H261.19C261.272 196 261.351 195.967 261.409 195.909C261.467 195.851 261.5 195.772 261.5 195.69V178.68C261.5 178.599 261.531 178.522 261.587 178.464C261.643 178.406 261.72 178.373 261.8 178.37L269.95 178.21C270.03 178.207 270.107 178.174 270.163 178.116C270.219 178.058 270.25 177.981 270.25 177.9L270.26 176.06C270.26 175.978 270.227 175.899 270.169 175.841C270.111 175.783 270.032 175.75 269.95 175.75H249.81C249.728 175.75 249.649 175.783 249.591 175.841C249.533 175.899 249.5 175.978 249.5 176.06V177.96C249.5 178.042 249.533 178.121 249.591 178.179C249.649 178.237 249.728 178.27 249.81 178.27L258.22 178.24ZM73.7429 176.038C73.7428 176.001 73.7355 175.965 73.7214 175.931C73.7073 175.897 73.6866 175.866 73.6605 175.84C73.6345 175.814 73.6036 175.793 73.5696 175.779C73.5356 175.765 73.4992 175.758 73.4624 175.758L71.5224 175.762C71.4856 175.762 71.4492 175.769 71.4153 175.783C71.3813 175.797 71.3505 175.818 71.3246 175.844C71.2986 175.87 71.278 175.901 71.264 175.935C71.25 175.969 71.2428 176.005 71.2429 176.042L71.2771 195.682C71.2772 195.719 71.2845 195.755 71.2986 195.789C71.3127 195.823 71.3334 195.854 71.3595 195.88C71.3855 195.906 71.4164 195.927 71.4504 195.941C71.4844 195.955 71.5208 195.962 71.5576 195.962L73.4976 195.958C73.5344 195.958 73.5708 195.951 73.6047 195.937C73.6387 195.923 73.6695 195.902 73.6954 195.876C73.7214 195.85 73.742 195.819 73.756 195.785C73.77 195.751 73.7772 195.715 73.7771 195.678L73.7429 176.038ZM80.78 178.43L94.31 178.18C94.4832 178.177 94.6535 178.23 94.7956 178.333C94.9378 178.435 95.0445 178.582 95.1 178.75L95.37 179.54C95.419 179.685 95.5148 179.809 95.6418 179.893C95.7689 179.976 95.9197 180.014 96.07 180L97.14 179.9C97.3211 179.883 97.4891 179.799 97.6112 179.666C97.7333 179.533 97.8006 179.359 97.8 179.18C97.8 174.09 87.54 175.7 81.71 175.78C78.96 175.82 77.16 176.86 77.17 179.75C77.19 183.603 77.2233 187.46 77.27 191.32C77.3 194.08 77.91 196.06 81 196.05C85.8867 196.043 90.6667 196.017 95.34 195.97C96.9467 195.95 97.75 195.137 97.75 193.53V185.75C97.75 185.617 97.6973 185.49 97.6036 185.396C97.5098 185.303 97.3826 185.25 97.25 185.25H90.75C90.6174 185.25 90.4902 185.303 90.3964 185.396C90.3027 185.49 90.25 185.617 90.25 185.75V187.25C90.25 187.383 90.3027 187.51 90.3964 187.604C90.4902 187.697 90.6174 187.75 90.75 187.75L94.63 187.76C94.7944 187.76 94.9521 187.825 95.0684 187.942C95.1847 188.058 95.25 188.216 95.25 188.38V192.92C95.25 193.095 95.1805 193.263 95.0567 193.387C94.9329 193.51 94.765 193.58 94.59 193.58L80.77 193.54C80.6321 193.54 80.4998 193.485 80.4023 193.388C80.3048 193.29 80.25 193.158 80.25 193.02V178.97C80.25 178.829 80.3055 178.693 80.4046 178.592C80.5037 178.491 80.6385 178.433 80.78 178.43ZM117.86 192.29L104.26 176.21C104.141 176.066 103.992 175.95 103.825 175.871C103.657 175.791 103.474 175.75 103.29 175.75H100.75C100.617 175.75 100.49 175.803 100.396 175.896C100.303 175.99 100.25 176.117 100.25 176.25V195.37C100.25 195.537 100.316 195.697 100.435 195.815C100.553 195.934 100.713 196 100.88 196H102.65C102.82 196 102.983 195.933 103.103 195.813C103.223 195.693 103.29 195.53 103.29 195.36L103.17 180.07C103.17 179.417 103.38 179.343 103.8 179.85L116.86 195.49C116.977 195.631 117.122 195.746 117.288 195.827C117.453 195.908 117.635 195.954 117.82 195.96L120.22 196.02C120.294 196.021 120.368 196.008 120.437 195.98C120.506 195.953 120.569 195.912 120.622 195.86C120.676 195.807 120.718 195.745 120.746 195.677C120.775 195.608 120.79 195.534 120.79 195.46L120.73 176.24C120.73 176.176 120.717 176.112 120.693 176.052C120.668 175.993 120.632 175.939 120.586 175.894C120.541 175.848 120.487 175.812 120.428 175.787C120.368 175.763 120.304 175.75 120.24 175.75H118.87C118.706 175.75 118.548 175.815 118.432 175.932C118.315 176.048 118.25 176.206 118.25 176.37V192.15C118.25 192.55 118.12 192.597 117.86 192.29ZM127 188.75H141C141.133 188.75 141.26 188.803 141.354 188.896C141.447 188.99 141.5 189.117 141.5 189.25V195.38C141.5 195.544 141.566 195.702 141.685 195.818C141.803 195.935 141.963 196 142.13 196H143.96C144.096 196 144.227 195.945 144.324 195.848C144.421 195.751 144.477 195.619 144.48 195.48C144.52 190.58 144.517 185.683 144.47 180.79C144.45 177.84 143.79 175.73 140.5 175.73C136.52 175.737 132.537 175.743 128.55 175.75C125.29 175.76 123.55 176.81 123.73 180.25C123.857 182.73 123.833 187.763 123.66 195.35C123.657 195.505 123.716 195.654 123.822 195.767C123.929 195.879 124.075 195.945 124.23 195.95L125.98 196.01C126.047 196.013 126.115 196.002 126.178 195.979C126.241 195.955 126.298 195.92 126.347 195.874C126.395 195.828 126.434 195.773 126.46 195.712C126.487 195.651 126.5 195.586 126.5 195.52V189.25C126.5 189.117 126.553 188.99 126.646 188.896C126.74 188.803 126.867 188.75 127 188.75ZM167.06 192.75C163.933 187.363 160.803 181.97 157.67 176.57C157.063 175.53 156.03 175.293 154.57 175.86C154.514 175.882 154.463 175.916 154.421 175.96C154.38 176.003 154.348 176.055 154.328 176.112C154.308 176.169 154.3 176.229 154.306 176.289C154.311 176.35 154.33 176.408 154.36 176.46L165.34 195.4C165.426 195.546 165.547 195.668 165.692 195.754C165.837 195.84 166.002 195.887 166.17 195.89L168.35 195.95C168.54 195.953 168.728 195.905 168.893 195.812C169.059 195.719 169.195 195.584 169.29 195.42L180.24 176.44C180.273 176.382 180.292 176.318 180.297 176.251C180.301 176.185 180.29 176.119 180.265 176.057C180.24 175.995 180.201 175.94 180.152 175.896C180.103 175.851 180.044 175.819 179.98 175.8C178.29 175.31 177.35 175.74 176.46 177.3C173.487 182.453 170.52 187.603 167.56 192.75C167.534 192.794 167.498 192.83 167.454 192.855C167.41 192.88 167.361 192.893 167.31 192.893C167.259 192.893 167.21 192.88 167.166 192.855C167.122 192.83 167.086 192.794 167.06 192.75ZM200.25 189.25V195.25C200.25 195.428 200.322 195.598 200.449 195.724C200.577 195.849 200.75 195.92 200.93 195.92L202.57 195.93C202.75 195.93 202.923 195.858 203.051 195.731C203.178 195.603 203.25 195.43 203.25 195.25C203.27 191.9 204.88 175.81 200 175.77C194.987 175.723 189.98 175.737 184.98 175.81C183.32 175.83 182.49 176.67 182.49 178.33V195.42C182.49 195.494 182.505 195.567 182.534 195.635C182.563 195.703 182.605 195.765 182.658 195.816C182.711 195.867 182.774 195.908 182.843 195.934C182.912 195.96 182.986 195.973 183.06 195.97L184.58 195.92C184.76 195.915 184.93 195.84 185.055 195.711C185.18 195.582 185.25 195.41 185.25 195.23V189.37C185.25 189.206 185.316 189.048 185.435 188.932C185.553 188.815 185.713 188.75 185.88 188.75H199.75C199.883 188.75 200.01 188.803 200.104 188.896C200.197 188.99 200.25 189.117 200.25 189.25ZM208.62 192.94L208.46 176.26C208.457 176.124 208.401 175.994 208.304 175.899C208.207 175.803 208.076 175.75 207.94 175.75H206.25C206.117 175.75 205.99 175.803 205.896 175.896C205.803 175.99 205.75 176.117 205.75 176.25L205.74 192.74C205.74 194.907 206.823 195.99 208.99 195.99L223.83 196C225.59 196 226.473 195.12 226.48 193.36L226.51 176.26C226.51 176.125 226.456 175.995 226.361 175.899C226.265 175.804 226.135 175.75 226 175.75H224C223.867 175.75 223.74 175.803 223.646 175.896C223.553 175.99 223.5 176.117 223.5 176.25V193C223.5 193.133 223.447 193.26 223.354 193.354C223.26 193.447 223.133 193.5 223 193.5H209.18C209.031 193.5 208.889 193.441 208.784 193.336C208.679 193.231 208.62 193.089 208.62 192.94ZM231.99 193.57C231.87 193.567 231.755 193.518 231.671 193.432C231.587 193.346 231.54 193.23 231.54 193.11L231.48 176.21C231.48 176.088 231.432 175.971 231.345 175.885C231.259 175.798 231.142 175.75 231.02 175.75H229.21C229.15 175.75 229.09 175.762 229.034 175.785C228.978 175.808 228.927 175.842 228.885 175.885C228.842 175.927 228.808 175.978 228.785 176.034C228.762 176.09 228.75 176.15 228.75 176.21V195.5C228.75 195.56 228.762 195.62 228.785 195.676C228.808 195.732 228.842 195.783 228.885 195.825C228.927 195.868 228.978 195.902 229.034 195.925C229.09 195.948 229.15 195.96 229.21 195.96L249.2 196.02C249.263 196.019 249.325 196.005 249.383 195.979C249.44 195.952 249.491 195.915 249.534 195.868C249.576 195.821 249.608 195.766 249.628 195.706C249.648 195.646 249.655 195.583 249.65 195.52L249.54 194.22C249.53 194.107 249.479 194.001 249.396 193.924C249.312 193.846 249.204 193.802 249.09 193.8L231.99 193.57Z" fill="#000000"/>
    <path d="M194.14 71.48C194.567 71.729 194.926 72.0803 195.184 72.5027C195.442 72.925 195.592 73.4051 195.62 73.9C196.18 84.2 196.64 95.64 195.03 105.29C190.36 133.32 173.96 153.13 150.29 167.94C150.147 168.029 149.982 168.074 149.815 168.071C149.648 168.067 149.487 168.015 149.35 167.92C145.657 165.36 142.073 162.757 138.6 160.11C111.23 139.25 98.91 106.56 104.56 72.72C104.585 72.5665 104.643 72.4199 104.731 72.2904C104.819 72.1609 104.935 72.0516 105.07 71.97C131.65 56.14 167.12 55.71 194.14 71.48ZM155.95 63.49C139.117 62.15 123.433 65.6233 108.9 73.91C108.578 74.093 108.304 74.3497 108.101 74.6592C107.897 74.9686 107.77 75.3219 107.73 75.69C103.51 112.76 117.39 142.44 148.36 162.97C148.417 163.009 148.482 163.034 148.55 163.044C148.618 163.053 148.688 163.047 148.754 163.026C148.82 163.005 148.881 162.969 148.932 162.922C148.984 162.874 149.024 162.815 149.05 162.75C151.297 156.983 153.05 151.057 154.31 144.97C156.53 134.27 150.29 127.79 143.12 119.67C124.43 98.49 137.31 77.74 156.09 64C156.503 63.7 156.457 63.53 155.95 63.49ZM191.52 74.09C181.653 68.41 171.053 64.9567 159.72 63.73C159.54 63.709 159.359 63.7415 159.198 63.8235C159.038 63.9054 158.906 64.033 158.82 64.19C154.48 72.0567 151.173 80.2933 148.9 88.9C143.33 110.03 173.52 118.07 165.96 143.35C163.19 152.63 157.64 156.66 151.39 163.05C151.083 163.363 151.113 163.4 151.48 163.16C182.793 142.633 196.357 113.273 192.17 75.08C192.145 74.8753 192.074 74.6793 191.961 74.5075C191.848 74.3356 191.697 74.1927 191.52 74.09Z" fill="#E55807"/>
    <path d="M155.95 63.49C156.457 63.53 156.503 63.7 156.09 64C137.31 77.74 124.43 98.49 143.12 119.67C150.29 127.79 156.53 134.27 154.31 144.97C153.05 151.057 151.297 156.983 149.05 162.75C149.024 162.815 148.984 162.874 148.932 162.922C148.881 162.969 148.82 163.005 148.754 163.026C148.688 163.047 148.618 163.053 148.55 163.044C148.482 163.034 148.417 163.009 148.36 162.97C117.39 142.44 103.51 112.76 107.73 75.69C107.77 75.3219 107.897 74.9686 108.101 74.6591C108.304 74.3497 108.578 74.0929 108.9 73.91C123.433 65.6233 139.117 62.15 155.95 63.49Z" fill="#000000"/>
    <path d="M191.52 74.09C191.697 74.1927 191.848 74.3356 191.961 74.5075C192.074 74.6793 192.145 74.8753 192.17 75.08C196.357 113.273 182.793 142.633 151.48 163.16C151.113 163.4 151.083 163.363 151.39 163.05C157.64 156.66 163.19 152.63 165.96 143.35C173.52 118.07 143.33 110.03 148.9 88.9C151.173 80.2933 154.48 72.0567 158.82 64.19C158.906 64.033 159.038 63.9054 159.198 63.8235C159.359 63.7415 159.54 63.709 159.72 63.73C171.053 64.9567 181.653 68.41 191.52 74.09Z" fill="#000000"/>
    <path d="M49.93 193.76L63.74 193.73C64.0768 193.73 64.3999 193.596 64.638 193.358C64.8762 193.12 65.01 192.797 65.01 192.46V187.88C65.01 187.734 64.9813 187.59 64.9255 187.455C64.8697 187.321 64.788 187.198 64.6849 187.095C64.5818 186.992 64.4594 186.91 64.3248 186.854C64.1901 186.799 64.0458 186.77 63.9 186.77L49.11 186.73C47.4967 186.723 46.67 185.917 46.63 184.31L46.49 178.68C46.43 176.407 47.5367 175.263 49.81 175.25C54.2033 175.23 58.8 175.24 63.6 175.28C65.83 175.29 67.22 176.36 67.27 178.59C67.276 178.764 67.2161 178.933 67.1027 179.064C66.9892 179.194 66.8308 179.275 66.66 179.29L65.87 179.37C65.6966 179.387 65.5233 179.34 65.3832 179.238C65.2431 179.137 65.1458 178.988 65.11 178.82C64.91 177.97 64.52 177.38 63.55 177.33C58.8167 177.11 54.0967 177.17 49.39 177.51C49.2247 177.525 49.0709 177.599 48.9582 177.72C48.8455 177.84 48.782 177.997 48.78 178.16V183.63C48.78 183.772 48.8366 183.907 48.9376 184.008C49.0386 184.109 49.1759 184.167 49.32 184.17L64.73 184.45C66.39 184.483 67.2233 185.327 67.23 186.98L67.27 192.98C67.2833 194.96 66.3 195.96 64.32 195.98C59.7867 196.02 55.26 196.017 50.74 195.97C48.5 195.95 46.76 195.18 46.63 192.81C46.621 192.647 46.6673 192.486 46.7615 192.352C46.8557 192.218 46.9925 192.119 47.15 192.07C48.29 191.717 48.9667 192.077 49.18 193.15C49.2165 193.322 49.3109 193.476 49.4473 193.587C49.5838 193.698 49.7541 193.759 49.93 193.76Z" fill="#E55807"/>
    <path d="M258.22 178.24L249.81 178.27C249.728 178.27 249.649 178.237 249.591 178.179C249.533 178.121 249.5 178.042 249.5 177.96V176.06C249.5 175.978 249.533 175.899 249.591 175.841C249.649 175.783 249.728 175.75 249.81 175.75H269.95C270.032 175.75 270.111 175.783 270.169 175.841C270.227 175.899 270.26 175.978 270.26 176.06L270.25 177.9C270.25 177.981 270.219 178.058 270.163 178.116C270.107 178.174 270.03 178.207 269.95 178.21L261.8 178.37C261.72 178.373 261.643 178.406 261.587 178.464C261.531 178.522 261.5 178.599 261.5 178.68V195.69C261.5 195.772 261.467 195.851 261.409 195.909C261.351 195.967 261.272 196 261.19 196H258.8C258.718 196 258.639 195.967 258.581 195.909C258.523 195.851 258.49 195.772 258.49 195.69L258.53 178.55C258.53 178.468 258.497 178.389 258.439 178.331C258.381 178.273 258.302 178.24 258.22 178.24Z" fill="white"/>
    <path d="M73.4624 175.758L71.5224 175.762C71.3677 175.762 71.2426 175.888 71.2429 176.042L71.2771 195.682C71.2774 195.837 71.403 195.962 71.5576 195.962L73.4976 195.958C73.6523 195.958 73.7774 195.832 73.7771 195.678L73.7429 176.038C73.7426 175.883 73.617 175.758 73.4624 175.758Z" fill="white"/>
    <path d="M80.25 178.97V193.02C80.25 193.158 80.3048 193.29 80.4023 193.388C80.4998 193.485 80.6321 193.54 80.77 193.54L94.59 193.58C94.765 193.58 94.9329 193.51 95.0567 193.387C95.1805 193.263 95.25 193.095 95.25 192.92V188.38C95.25 188.216 95.1847 188.058 95.0684 187.942C94.9521 187.825 94.7944 187.76 94.63 187.76L90.75 187.75C90.6174 187.75 90.4902 187.697 90.3964 187.604C90.3027 187.51 90.25 187.383 90.25 187.25V185.75C90.25 185.617 90.3027 185.49 90.3964 185.396C90.4902 185.303 90.6174 185.25 90.75 185.25H97.25C97.3826 185.25 97.5098 185.303 97.6035 185.396C97.6973 185.49 97.75 185.617 97.75 185.75V193.53C97.75 195.137 96.9467 195.95 95.34 195.97C90.6667 196.017 85.8867 196.043 81 196.05C77.91 196.06 77.3 194.08 77.27 191.32C77.2233 187.46 77.19 183.603 77.17 179.75C77.16 176.86 78.96 175.82 81.71 175.78C87.54 175.7 97.8 174.09 97.8 179.18C97.8006 179.359 97.7333 179.533 97.6112 179.666C97.4891 179.799 97.3211 179.883 97.14 179.9L96.07 180C95.9197 180.014 95.7689 179.976 95.6418 179.893C95.5148 179.809 95.419 179.685 95.37 179.54L95.1 178.75C95.0445 178.582 94.9378 178.435 94.7956 178.333C94.6534 178.23 94.4832 178.177 94.31 178.18L80.78 178.43C80.6385 178.433 80.5037 178.491 80.4046 178.592C80.3055 178.693 80.25 178.828 80.25 178.97Z" fill="white"/>
    <path d="M118.25 192.15V176.37C118.25 176.206 118.315 176.048 118.432 175.932C118.548 175.815 118.706 175.75 118.87 175.75H120.24C120.304 175.75 120.368 175.763 120.428 175.787C120.487 175.812 120.541 175.848 120.586 175.894C120.632 175.939 120.668 175.993 120.693 176.052C120.717 176.112 120.73 176.176 120.73 176.24L120.79 195.46C120.79 195.534 120.775 195.608 120.746 195.677C120.718 195.745 120.676 195.807 120.622 195.86C120.569 195.912 120.506 195.953 120.437 195.98C120.368 196.008 120.294 196.021 120.22 196.02L117.82 195.96C117.635 195.954 117.453 195.908 117.288 195.827C117.122 195.746 116.977 195.631 116.86 195.49L103.8 179.85C103.38 179.343 103.17 179.417 103.17 180.07L103.29 195.36C103.29 195.53 103.223 195.693 103.103 195.813C102.983 195.933 102.82 196 102.65 196H100.88C100.713 196 100.553 195.934 100.435 195.815C100.316 195.697 100.25 195.537 100.25 195.37V176.25C100.25 176.117 100.303 175.99 100.396 175.896C100.49 175.803 100.617 175.75 100.75 175.75H103.29C103.474 175.75 103.657 175.791 103.825 175.871C103.992 175.95 104.141 176.066 104.26 176.21L117.86 192.29C118.12 192.597 118.25 192.55 118.25 192.15Z" fill="white"/>
    <path d="M126.5 189.25V195.52C126.5 195.586 126.487 195.651 126.46 195.712C126.434 195.773 126.395 195.828 126.347 195.874C126.298 195.92 126.241 195.955 126.178 195.979C126.115 196.002 126.047 196.013 125.98 196.01L124.23 195.95C124.075 195.945 123.929 195.879 123.822 195.767C123.716 195.654 123.657 195.505 123.66 195.35C123.833 187.763 123.857 182.73 123.73 180.25C123.55 176.81 125.29 175.76 128.55 175.75C132.537 175.743 136.52 175.737 140.5 175.73C143.79 175.73 144.45 177.84 144.47 180.79C144.517 185.683 144.52 190.58 144.48 195.48C144.477 195.619 144.421 195.751 144.324 195.848C144.227 195.945 144.096 196 143.96 196H142.13C141.963 196 141.803 195.935 141.685 195.818C141.566 195.702 141.5 195.544 141.5 195.38V189.25C141.5 189.117 141.447 188.99 141.354 188.896C141.26 188.803 141.133 188.75 141 188.75H127C126.867 188.75 126.74 188.803 126.646 188.896C126.553 188.99 126.5 189.117 126.5 189.25ZM141.477 178.754C141.477 178.713 141.469 178.673 141.453 178.635C141.438 178.598 141.415 178.564 141.386 178.535C141.357 178.506 141.323 178.484 141.285 178.468C141.247 178.453 141.207 178.445 141.166 178.445L126.807 178.495C126.766 178.495 126.725 178.503 126.688 178.519C126.65 178.535 126.616 178.558 126.588 178.587C126.559 178.616 126.536 178.65 126.521 178.687C126.505 178.725 126.497 178.765 126.497 178.806L126.522 185.966C126.523 186.007 126.531 186.047 126.547 186.085C126.562 186.122 126.585 186.156 126.614 186.185C126.643 186.214 126.677 186.236 126.715 186.252C126.753 186.267 126.793 186.275 126.834 186.275L141.193 186.225C141.234 186.225 141.275 186.217 141.312 186.201C141.35 186.185 141.384 186.162 141.412 186.133C141.441 186.104 141.464 186.07 141.479 186.033C141.495 185.995 141.503 185.955 141.503 185.914L141.477 178.754Z" fill="white"/>
    <path d="M167.56 192.75C170.52 187.603 173.487 182.453 176.46 177.3C177.35 175.74 178.29 175.31 179.98 175.8C180.044 175.819 180.103 175.851 180.152 175.896C180.201 175.94 180.24 175.995 180.265 176.057C180.29 176.119 180.301 176.185 180.297 176.251C180.292 176.318 180.273 176.382 180.24 176.44L169.29 195.42C169.195 195.584 169.059 195.719 168.893 195.812C168.728 195.905 168.54 195.953 168.35 195.95L166.17 195.89C166.002 195.887 165.837 195.84 165.692 195.754C165.547 195.668 165.425 195.546 165.34 195.4L154.36 176.46C154.33 176.408 154.311 176.35 154.306 176.289C154.3 176.229 154.308 176.169 154.328 176.112C154.348 176.055 154.38 176.003 154.421 175.96C154.463 175.916 154.514 175.882 154.57 175.86C156.03 175.293 157.063 175.53 157.67 176.57C160.803 181.97 163.933 187.363 167.06 192.75C167.086 192.794 167.122 192.83 167.166 192.855C167.21 192.88 167.259 192.893 167.31 192.893C167.361 192.893 167.41 192.88 167.454 192.855C167.498 192.83 167.534 192.794 167.56 192.75Z" fill="white"/>
    <path d="M199.75 188.75H185.88C185.713 188.75 185.553 188.815 185.435 188.932C185.316 189.048 185.25 189.206 185.25 189.37V195.23C185.25 195.41 185.18 195.582 185.055 195.711C184.93 195.84 184.76 195.915 184.58 195.92L183.06 195.97C182.986 195.973 182.912 195.96 182.843 195.934C182.774 195.908 182.711 195.867 182.658 195.816C182.605 195.765 182.563 195.703 182.534 195.635C182.505 195.567 182.49 195.494 182.49 195.42V178.33C182.49 176.67 183.32 175.83 184.98 175.81C189.98 175.737 194.987 175.723 200 175.77C204.88 175.81 203.27 191.9 203.25 195.25C203.25 195.43 203.178 195.603 203.051 195.731C202.923 195.858 202.75 195.93 202.57 195.93L200.93 195.92C200.75 195.92 200.577 195.849 200.449 195.724C200.322 195.598 200.25 195.428 200.25 195.25V189.25C200.25 189.117 200.197 188.99 200.104 188.896C200.01 188.803 199.883 188.75 199.75 188.75ZM200.262 178.836C200.263 178.795 200.255 178.755 200.239 178.717C200.224 178.68 200.201 178.646 200.172 178.617C200.144 178.588 200.11 178.565 200.072 178.549C200.034 178.533 199.994 178.525 199.954 178.525L185.574 178.475C185.533 178.475 185.493 178.483 185.455 178.498C185.417 178.514 185.383 178.536 185.354 178.565C185.325 178.594 185.302 178.628 185.287 178.665C185.271 178.703 185.263 178.743 185.262 178.784L185.238 185.904C185.237 185.945 185.245 185.985 185.261 186.023C185.276 186.06 185.299 186.094 185.328 186.123C185.356 186.152 185.39 186.175 185.428 186.191C185.466 186.207 185.506 186.215 185.546 186.215L199.926 186.265C199.967 186.265 200.007 186.257 200.045 186.242C200.083 186.226 200.117 186.204 200.146 186.175C200.175 186.146 200.198 186.112 200.213 186.075C200.229 186.037 200.237 185.997 200.238 185.956L200.262 178.836Z" fill="white"/>
    <path d="M209.18 193.5H223C223.133 193.5 223.26 193.447 223.354 193.354C223.447 193.26 223.5 193.133 223.5 193V176.25C223.5 176.117 223.553 175.99 223.646 175.896C223.74 175.803 223.867 175.75 224 175.75H226C226.135 175.75 226.265 175.804 226.361 175.899C226.456 175.995 226.51 176.125 226.51 176.26L226.48 193.36C226.473 195.12 225.59 196 223.83 196L208.99 195.99C206.823 195.99 205.74 194.907 205.74 192.74L205.75 176.25C205.75 176.117 205.803 175.99 205.896 175.896C205.99 175.803 206.117 175.75 206.25 175.75H207.94C208.076 175.75 208.207 175.803 208.304 175.899C208.401 175.994 208.457 176.124 208.46 176.26L208.62 192.94C208.62 193.089 208.679 193.231 208.784 193.336C208.889 193.441 209.031 193.5 209.18 193.5Z" fill="white"/>
    <path d="M231.99 193.57L249.09 193.8C249.204 193.802 249.313 193.846 249.396 193.924C249.479 194.001 249.53 194.107 249.54 194.22L249.65 195.52C249.655 195.583 249.648 195.646 249.628 195.706C249.608 195.766 249.576 195.821 249.534 195.868C249.491 195.915 249.44 195.952 249.383 195.979C249.325 196.005 249.263 196.019 249.2 196.02L229.21 195.96C229.15 195.96 229.09 195.948 229.034 195.925C228.978 195.902 228.927 195.868 228.885 195.825C228.842 195.783 228.808 195.732 228.785 195.676C228.762 195.62 228.75 195.56 228.75 195.5V176.21C228.75 176.15 228.762 176.09 228.785 176.034C228.808 175.978 228.842 175.927 228.885 175.885C228.927 175.842 228.978 175.808 229.034 175.785C229.09 175.762 229.15 175.75 229.21 175.75H231.02C231.142 175.75 231.259 175.798 231.345 175.885C231.432 175.971 231.48 176.088 231.48 176.21L231.54 193.11C231.54 193.23 231.587 193.346 231.671 193.432C231.755 193.518 231.87 193.567 231.99 193.57Z" fill="white"/>
    <path d="M141.166 178.445L126.806 178.495C126.635 178.496 126.497 178.635 126.498 178.806L126.523 185.966C126.523 186.137 126.662 186.276 126.834 186.275L141.194 186.225C141.365 186.224 141.503 186.085 141.502 185.914L141.477 178.754C141.477 178.583 141.338 178.444 141.166 178.445Z" fill="#000000"/>
    <path d="M199.953 178.525L185.574 178.475C185.402 178.474 185.263 178.613 185.262 178.784L185.238 185.904C185.237 186.075 185.375 186.214 185.547 186.215L199.926 186.265C200.098 186.266 200.237 186.127 200.238 185.956L200.262 178.836C200.263 178.665 200.125 178.526 199.953 178.525Z" fill="#000000"/>
  </g>
  <defs fill="#000000">
    <clipPath id="clip0_26_11" fill="#000000">
      <rect width="300" height="300" fill="white"/>
    </clipPath>
  </defs>
</svg>